<mxfile host="app.diagrams.net" modified="2024-06-14T09:40:00.786Z" agent="Mozilla/5.0 (Windows NT 10.0; Win64; x64) AppleWebKit/537.36 (KHTML, like Gecko) Chrome/126.0.0.0 Safari/537.36" etag="ljk5dqyRAR9kn8mfs7lr" version="24.5.3" type="device">
  <diagram name="第 1 页" id="L5u8EUB9qDxPLzP4zzUu">
    <mxGraphModel dx="880" dy="434" grid="1" gridSize="10" guides="1" tooltips="1" connect="1" arrows="1" fold="1" page="1" pageScale="1" pageWidth="827" pageHeight="1169" math="0" shadow="0">
      <root>
        <mxCell id="0" />
        <mxCell id="1" parent="0" />
        <mxCell id="YQZlp1rxetBFQlgO7vTc-8" style="edgeStyle=orthogonalEdgeStyle;rounded=0;orthogonalLoop=1;jettySize=auto;html=1;entryX=0;entryY=0.5;entryDx=0;entryDy=0;" edge="1" parent="1" source="YQZlp1rxetBFQlgO7vTc-1" target="YQZlp1rxetBFQlgO7vTc-4">
          <mxGeometry relative="1" as="geometry" />
        </mxCell>
        <mxCell id="YQZlp1rxetBFQlgO7vTc-1" value="" style="rounded=1;whiteSpace=wrap;html=1;fillColor=#99CCFF;" vertex="1" parent="1">
          <mxGeometry x="120" y="40" width="320" height="180" as="geometry" />
        </mxCell>
        <mxCell id="YQZlp1rxetBFQlgO7vTc-2" value="&lt;div&gt;&lt;span style=&quot;background-color: initial;&quot;&gt;monado\src\xrt\ipc\android\src\main\java\org\&lt;/span&gt;&lt;/div&gt;&lt;div&gt;&lt;span style=&quot;background-color: initial;&quot;&gt;freedesktop\monado\ipc\Client.java&lt;/span&gt;&lt;br&gt;&lt;/div&gt;" style="text;html=1;align=center;verticalAlign=middle;whiteSpace=wrap;rounded=0;" vertex="1" parent="1">
          <mxGeometry x="250" y="50" width="40" height="30" as="geometry" />
        </mxCell>
        <mxCell id="YQZlp1rxetBFQlgO7vTc-3" value="&lt;font style=&quot;font-size: 15px;&quot;&gt;ParcelFileDescriptor[] fds = ParcelFileDescriptor.createSocketPair();&lt;br&gt;&amp;nbsp; &amp;nbsp; &amp;nbsp; &amp;nbsp; &amp;nbsp; &amp;nbsp; ours = fds[0];&lt;br&gt;&amp;nbsp; &amp;nbsp; &amp;nbsp; &amp;nbsp; &amp;nbsp; &amp;nbsp; theirs = fds[1];&lt;br&gt;&amp;nbsp; &amp;nbsp; &amp;nbsp; &amp;nbsp; &amp;nbsp; &amp;nbsp; monado.connect(theirs);&lt;/font&gt;" style="rounded=0;whiteSpace=wrap;html=1;fillColor=#FFB366;" vertex="1" parent="1">
          <mxGeometry x="130" y="90" width="300" height="110" as="geometry" />
        </mxCell>
        <mxCell id="YQZlp1rxetBFQlgO7vTc-13" style="edgeStyle=orthogonalEdgeStyle;rounded=0;orthogonalLoop=1;jettySize=auto;html=1;entryX=0.5;entryY=0;entryDx=0;entryDy=0;" edge="1" parent="1" source="YQZlp1rxetBFQlgO7vTc-4" target="YQZlp1rxetBFQlgO7vTc-9">
          <mxGeometry relative="1" as="geometry" />
        </mxCell>
        <mxCell id="YQZlp1rxetBFQlgO7vTc-4" value="" style="rounded=1;whiteSpace=wrap;html=1;fillColor=#99CCFF;" vertex="1" parent="1">
          <mxGeometry x="480" y="10" width="320" height="240" as="geometry" />
        </mxCell>
        <mxCell id="YQZlp1rxetBFQlgO7vTc-5" value="&lt;div&gt;&lt;span style=&quot;background-color: initial;&quot;&gt;monado\src\xrt\ipc\android\src\main\java\org\&lt;/span&gt;&lt;/div&gt;&lt;div&gt;&lt;span style=&quot;background-color: initial;&quot;&gt;freedesktop\monado\ipc\MonadoImpl.java&lt;/span&gt;&lt;br&gt;&lt;/div&gt;" style="text;html=1;align=center;verticalAlign=middle;whiteSpace=wrap;rounded=0;" vertex="1" parent="1">
          <mxGeometry x="610" y="20" width="40" height="30" as="geometry" />
        </mxCell>
        <mxCell id="YQZlp1rxetBFQlgO7vTc-6" value="&lt;span style=&quot;font-size: 15px;&quot;&gt;public void connect(@NonNull ParcelFileDescriptor parcelFileDescriptor) throws RemoteException {&lt;/span&gt;&lt;br&gt;&lt;div&gt;&lt;span style=&quot;font-size: 15px;&quot;&gt;int fd = parcelFileDescriptor.getFd();&lt;/span&gt;&lt;br&gt;&lt;/div&gt;&lt;div&gt;&lt;span style=&quot;font-size: 15px;&quot;&gt;if (nativeAddClient(fd) != 0) {&lt;/span&gt;&lt;br&gt;&lt;/div&gt;&lt;div&gt;&lt;span style=&quot;font-size: 15px;&quot;&gt;......&lt;/span&gt;&lt;/div&gt;&lt;div&gt;&lt;span style=&quot;font-size: 15px;&quot;&gt;}&lt;/span&gt;&lt;/div&gt;&lt;div&gt;&lt;span style=&quot;font-size: 15px;&quot;&gt;......&lt;/span&gt;&lt;/div&gt;&lt;div&gt;&lt;span style=&quot;font-size: 15px;&quot;&gt;}&lt;/span&gt;&lt;/div&gt;" style="rounded=0;whiteSpace=wrap;html=1;fillColor=#FFB366;" vertex="1" parent="1">
          <mxGeometry x="490" y="60" width="300" height="180" as="geometry" />
        </mxCell>
        <mxCell id="YQZlp1rxetBFQlgO7vTc-21" style="edgeStyle=orthogonalEdgeStyle;rounded=0;orthogonalLoop=1;jettySize=auto;html=1;entryX=1;entryY=0.5;entryDx=0;entryDy=0;" edge="1" parent="1" source="YQZlp1rxetBFQlgO7vTc-9" target="YQZlp1rxetBFQlgO7vTc-18">
          <mxGeometry relative="1" as="geometry" />
        </mxCell>
        <mxCell id="YQZlp1rxetBFQlgO7vTc-9" value="" style="rounded=1;whiteSpace=wrap;html=1;fillColor=#99CCFF;" vertex="1" parent="1">
          <mxGeometry x="445" y="290" width="390" height="240" as="geometry" />
        </mxCell>
        <mxCell id="YQZlp1rxetBFQlgO7vTc-10" value="&lt;div&gt;monado\src\xrt\targets\service-lib\service_target.cpp&lt;br&gt;&lt;/div&gt;&lt;div&gt;&lt;br&gt;&lt;/div&gt;&lt;div&gt;&lt;font color=&quot;#ff0000&quot;&gt;Java_org_freedesktop_monado_ipc_MonadoImpl_nativeAddClient()-&amp;gt;IpcServerHelper::instance().addClient()&lt;/font&gt;&lt;br&gt;&lt;/div&gt;" style="text;html=1;align=center;verticalAlign=middle;whiteSpace=wrap;rounded=0;" vertex="1" parent="1">
          <mxGeometry x="610" y="303" width="40" height="30" as="geometry" />
        </mxCell>
        <mxCell id="YQZlp1rxetBFQlgO7vTc-11" value="&lt;font style=&quot;font-size: 14px;&quot;&gt;int32_t&lt;br&gt;&amp;nbsp;&amp;nbsp;&amp;nbsp;&amp;nbsp;addClient(int fd)&lt;br&gt;&amp;nbsp;&amp;nbsp;&amp;nbsp;&amp;nbsp;{&lt;br&gt;&amp;nbsp;&amp;nbsp;&amp;nbsp;&amp;nbsp;&amp;nbsp;&amp;nbsp;&amp;nbsp;&amp;nbsp;if (!waitForStartupComplete()) {&lt;br&gt;&amp;nbsp;&amp;nbsp;&amp;nbsp;&amp;nbsp;&amp;nbsp;&amp;nbsp;&amp;nbsp;&amp;nbsp;&amp;nbsp;&amp;nbsp;&amp;nbsp;&amp;nbsp;return -1;&lt;br&gt;&amp;nbsp;&amp;nbsp;&amp;nbsp;&amp;nbsp;&amp;nbsp;&amp;nbsp;&amp;nbsp;&amp;nbsp;}&lt;br&gt;&amp;nbsp;&amp;nbsp;&amp;nbsp;&amp;nbsp;&amp;nbsp;&amp;nbsp;&amp;nbsp;&amp;nbsp;return &lt;font color=&quot;#ff0000&quot;&gt;ipc_server_mainloop_add_fd(server, &amp;amp;server-&amp;gt;ml, fd);&lt;/font&gt;&lt;br&gt;&amp;nbsp;&amp;nbsp;&amp;nbsp;&amp;nbsp;}&lt;/font&gt;" style="rounded=0;whiteSpace=wrap;html=1;fillColor=#FFB366;" vertex="1" parent="1">
          <mxGeometry x="460" y="350" width="360" height="170" as="geometry" />
        </mxCell>
        <mxCell id="YQZlp1rxetBFQlgO7vTc-18" value="" style="rounded=1;whiteSpace=wrap;html=1;fillColor=#99CCFF;" vertex="1" parent="1">
          <mxGeometry x="20" y="290" width="390" height="240" as="geometry" />
        </mxCell>
        <mxCell id="YQZlp1rxetBFQlgO7vTc-19" value="&lt;div&gt;monado\src\xrt\ipc\server\ipc_server_mainloop_android.c&lt;br&gt;&lt;/div&gt;" style="text;html=1;align=center;verticalAlign=middle;whiteSpace=wrap;rounded=0;" vertex="1" parent="1">
          <mxGeometry x="185" y="303" width="40" height="30" as="geometry" />
        </mxCell>
        <mxCell id="YQZlp1rxetBFQlgO7vTc-20" value="&lt;div&gt;&lt;span style=&quot;font-size: 14px;&quot;&gt;int&amp;nbsp;&lt;/span&gt;&lt;span style=&quot;font-size: 14px; background-color: initial;&quot;&gt;ipc_server_mainloop_add_fd(struct ipc_server *vs, struct ipc_server_mainloop *ml, int newfd) {&lt;/span&gt;&lt;/div&gt;&lt;div&gt;&lt;span style=&quot;font-size: 14px;&quot;&gt;......&lt;/span&gt;&lt;/div&gt;&lt;div&gt;&lt;span style=&quot;font-size: 14px;&quot;&gt;int ret = write(ml-&amp;gt;pipe_write, &amp;amp;newfd, sizeof(newfd));// 通过启动时创建的pipe管道，写入client的socketpair，使得runtime server后端监听pipe收到消息，启动对应的client线程，server中相关等待接收函数：&lt;/span&gt;&lt;span style=&quot;background-color: initial; font-size: 14px;&quot;&gt;ipc_server_mainloop_poll &amp;amp;&amp;nbsp;&lt;/span&gt;&lt;span style=&quot;background-color: initial; font-size: 14px;&quot;&gt;handle_listen&lt;/span&gt;&lt;br&gt;&lt;/div&gt;&lt;div&gt;&lt;span style=&quot;font-size: 14px;&quot;&gt;......&lt;/span&gt;&lt;/div&gt;&lt;div&gt;&lt;span style=&quot;font-size: 14px;&quot;&gt;}&lt;/span&gt;&lt;/div&gt;" style="rounded=0;whiteSpace=wrap;html=1;fillColor=#FFB366;" vertex="1" parent="1">
          <mxGeometry x="35" y="330" width="360" height="190" as="geometry" />
        </mxCell>
      </root>
    </mxGraphModel>
  </diagram>
</mxfile>
